<svg xmlns="http://www.w3.org/2000/svg" viewBox="0 0 12100 100" width="12100" height="100"><path d="M61.8 100l-16-20 16 20zM159.74 100l-14.8-20h.86l16 20h-2.06zM257.68 100l-13.6-20h1.72l16 20h-4.12zM355.62 100l-12.4-20h2.58l16 20h-6.18zM453.56 100l-11.2-20h3.44l16 20h-8.24zM551.5 100l-10-20h4.3l16 20h-10.3zM649.44 100l-8.8-20h5.16l16 20h-12.36zM747.38 100l-7.6-20h6.02l16 20h-14.42zM845.32 100l-6.4-20h6.88l16 20h-16.48zM943.26 100l-5.2-20h7.74l16 20h-18.54zM1041.2 100l-4-20h8.6l16 20h-20.6zM1139.14 100l-2.8-20h9.46l16 20h-22.66zM1237.08 100l-1.6-20h10.32l16 20h-24.72zM1335.02 100l-.4-20h11.18l16 20h-26.78zM1432.96 100l.8-20h12.04l16 20h-28.84zM1530.9 100l2-20h12.9l16 20h-30.9zM1628.84 100l3.2-20h13.76l16 20h-32.96zM1726.78 100l4.4-20h14.62l16 20h-35.02zM1824.72 100l5.6-20h15.48l16 20h-37.08zM1922.66 100l6.8-20h16.34l16 20h-39.14zM2020.6 100l8-20h17.2l16 20h-41.2zM2118.54 100l9.2-20h18.06l16 20h-43.26zM2216.48 100l10.4-20h18.92l16 20h-45.32zM2314.42 100l11.6-20h19.78l16 20h-47.38zM2412.36 100l12.8-20h20.64l16 20h-49.44zM2510.3 100l14-20h21.5l16 20h-51.5zM2608.24 100l15.2-20h22.36l16 20h-53.56zM2706.18 100l16.4-20h23.22l16 20h-55.62zM2804.12 100l17.6-20h24.08l16 20h-57.68zM2902.06 100l18.8-20h24.94l16 20h-59.74zM3000 100l20-20h25.8l16 20H3000zM3100 100v-2.222l20-18.844V80h25.8l16 20H3100zM3200 100v-4.444l20-17.689V80h25.8l16 20H3200zM3300 100v-6.667l20-16.532V80h25.8l16 20H3300zM3400 100v-8.889l20-15.376V80h25.8l16 20H3400zM3500 100V88.889l20-14.221V80h25.8l16 20H3500zM3600 100V86.667l20-13.065V80h25.8l16 20H3600zM3700 100V84.444l20-11.908V80h25.8l16 20H3700zM3800 100V82.222l20-10.752V80h25.8l16 20H3800zM3900 100V80l20-9.597V80h25.8l16 20H3900zM4000 100V77.778l20-8.441V80h25.8l16 20H4000zM4100 100V75.556l20-7.285V80h25.8l16 20H4100zM4200 100V73.333l20-6.129V80h25.8l16 20H4200zM4300 100V71.111l20-4.973V80h25.8l16 20H4300zM4400 100V68.889l20-3.817V80h25.8l16 20H4400zM4500 100V66.667l20-2.662V80h25.8l16 20H4500zM4600 100V64.444l20-1.505V80h25.8l16 20H4600zM4700 100V62.222l20-.349V80h25.8l16 20H4700zM4800 100V60l20 .806V80h25.8l16 20H4800zM4900 100V57.778l20 1.962V80h25.8l16 20H4900zM5000 100V55.556l20 3.118V80h25.8l16 20H5000zM5100 100V53.333l20 4.274V80h25.8l16 20H5100zM5200 100V51.111l20 5.43V80h25.8l16 20H5200zM5300 100V48.889l20 6.586V80h25.8l16 20H5300zM5400 100V46.667l20 7.742V80h25.8l16 20H5400zM5500 100V44.444l20 8.898V80h25.8l16 20H5500zM5600 100V42.222l20 10.054V80h25.8l16 20H5600zM5700 100V40l20 11.21V80h25.8l16 20H5700zM5800 100V37.778l20 12.365V80h25.8l16 20H5800zM5900 100V35.556l20 13.521V80h25.8l16 20H5900zM6000 100V33.333l20 14.678V80h25.8l16 20H6000zM6100 100V31.111l20 15.833V80h25.8l16 20H6100zM6200 100V28.889l20 16.989V80h25.8l16 20H6200zM6300 100V26.667l20 18.145V80h25.8l16 20H6300zM6400 100V24.444l20 19.301V80h25.8l16 20H6400zM6500 100V22.222l20 20.457V80h25.8l16 20H6500zM6600 100V20l20 21.613V80h25.8l16 20H6600zM6700 100V17.778l20 22.768V80h25.8l16 20H6700zM6800 100V15.556l20 23.924V80h25.8l16 20H6800zM6900 100V13.333l20 25.081V80h25.8l16 20H6900zM7000 100V11.111l20 26.237V80h25.8l16 20H7000zM7100 100V8.889l20 27.392V80h25.8l16 20H7100zM7200 100V6.667l20 28.548V80h25.8l16 20H7200zM7300 100V4.444l20 29.705V80h25.8l16 20H7300zM7400 100V2.222l20 30.86V80h25.8l16 20H7400zM7500 100V0l20 32.016V80h25.8l16 20H7500zM7600 100V0h2.222L7620 32.016V80h25.8l16 20H7600zM7700 100V0h4.444L7720 32.016V80h25.8l16 20H7700zM7800 100V0h6.667L7820 32.016V80h25.8l16 20H7800zM7900 100V0h8.889L7920 32.016V80h25.8l16 20H7900zM8000 100V0h11.111L8020 32.016V80h25.8l16 20H8000zM8100 100V0h13.333L8120 32.016V80h25.8l16 20H8100zM8200 100V0h15.556L8220 32.016V80h25.8l16 20H8200zM8300 100V0h17.778L8320 32.016V80h25.8l16 20H8300zM8400 100V0h20v80h25.8l16 20H8400zM8500 100V0h20l2.222 2.778-.711 31.126-1.511-1.888V80h25.8l16 20H8500zM8600 100V0h20l4.444 5.556-1.422 30.237-3.022-3.777V80h25.8l16 20H8600zM8700 100V0h20l6.667 8.333-2.135 29.348-4.532-5.665V80h25.8l16 20H8700zM8800 100V0h20l8.889 11.111-2.846 28.459-6.043-7.554V80h25.8l16 20H8800zM8900 100V0h20l11.111 13.889-3.557 27.569-7.554-9.442V80h25.8l16 20H8900zM9000 100V0h20l13.333 16.667-4.268 26.68L9020 32.016V80h25.8l16 20H9000zM9100 100V0h20l15.556 19.444-4.981 25.791L9120 32.016V80h25.8l16 20H9100zM9200 100V0h20l17.778 22.222-5.692 24.902L9220 32.016V80h25.8l16 20H9200zM9300 100V0h20l20 25-6.403 24.012L9320 32.016V80h25.8l16 20H9300zM9400 100V0h20l22.222 27.778-7.114 23.122L9420 32.016V80h25.8l16 20H9400zM9500 100V0h20l24.444 30.556-7.825 22.233L9520 32.016V80h25.8l16 20H9500zM9600 100V0h20l26.667 33.333-8.538 21.344L9620 32.016V80h25.8l16 20H9600zM9700 100V0h20l28.889 36.111-9.249 20.455-19.64-24.55V80h25.8l16 20H9700zM9800 100V0h20l31.111 38.889-9.96 19.565L9820 32.016V80h25.8l16 20H9800zM9900 100V0h20l33.333 41.667-10.671 18.676L9920 32.016V80h25.8l16 20H9900zM10000 100V0h20l35.556 44.444-11.384 17.787L10020 32.016V80h25.8l16 20h-61.8zM10100 100V0h20l37.778 47.222-12.095 16.898L10120 32.016V80h25.8l16 20h-61.8zM10200 100V0h20l40 50-12.806 16.008L10220 32.016V80h25.8l16 20h-61.8zM10300 100V0h20l42.222 52.778-13.517 15.118-28.705-35.88V80h25.8l16 20h-61.8zM10400 100V0h20l44.444 55.556-14.228 14.229L10420 32.016V80h25.8l16 20h-61.8zM10500 100V0h20l46.667 58.333-14.941 13.34L10520 32.016V80h25.8l16 20h-61.8zM10600 100V0h20l48.889 61.111-15.652 12.451L10620 32.016V80h25.8l16 20h-61.8zM10700 100V0h20l51.111 63.889-16.363 11.561L10720 32.016V80h25.8l16 20h-61.8zM10800 100V0h20l53.333 66.667-17.074 10.672L10820 32.016V80h25.8l16 20h-61.8zM10900 100V0h20l55.556 69.444-17.787 9.783L10920 32.016V80h25.8l16 20h-61.8zM11000 100V0h20l57.778 72.222-18.498 8.894-39.28-49.1V80h25.8l16 20h-61.8zM11100 100V0h20l60 75-19.209 8.004L11120 32.016V80h25.8l16 20h-61.8zM11200 100V0h20l62.222 77.778-19.92 7.114L11220 32.016V80h25.8l16 20h-61.8zM11300 100V0h20l64.444 80.556-20.631 6.225L11320 32.016V80h25.8l16 20h-61.8zM11400 100V0h20l66.667 83.333-21.344 5.336L11420 32.016V80h25.8l16 20h-61.8zM11500 100V0h20l68.889 86.111-22.055 4.447L11520 32.016V80h25.8l16 20h-61.8zM11600 100V0h20l71.111 88.889-22.766 3.557-48.345-60.43V80h25.8l16 20h-61.8zM11700 100V0h20l73.333 91.667-23.477 2.668L11720 32.016V80h25.8l16 20h-61.8zM11800 100V0h20l75.556 94.444-24.19 1.779L11820 32.016V80h25.8l16 20h-61.8zM11900 100V0h20l77.778 97.222-24.901.89L11920 32.016V80h25.8l16 20h-61.8zM12000 100V0h20l80 100h-25.612L12020 32.016V80h25.8l16 20h-61.8z" fill="#FFFFFF"/></svg>
